<svg width="17" height="21" viewBox="0 0 17 21" fill="none" xmlns="http://www.w3.org/2000/svg">
<path d="M0.0213068 14L1.83239 3.09091H6.54119C7.35085 3.09091 8.03267 3.25071 8.58665 3.57031C9.14063 3.88991 9.53835 4.33913 9.77983 4.91797C10.0213 5.4968 10.0781 6.1733 9.95028 6.94744C9.82244 7.7358 9.53835 8.41584 9.09801 8.98757C8.66122 9.55575 8.10369 9.99432 7.42543 10.3033C6.75071 10.6087 5.99432 10.7614 5.15625 10.7614H2.34375L2.72727 8.46023H4.94318C5.2983 8.46023 5.6108 8.39986 5.88068 8.27912C6.15057 8.15483 6.36896 7.98082 6.53587 7.7571C6.70277 7.52983 6.81108 7.25994 6.8608 6.94744C6.91051 6.63494 6.88743 6.36861 6.79155 6.14844C6.69922 5.92472 6.53942 5.75426 6.31215 5.63707C6.08842 5.51633 5.80256 5.45597 5.45455 5.45597H4.41051L2.98295 14H0.0213068Z" fill="white"/>
<path d="M13.1378 9.5C13.1697 9.14844 13.0845 8.87322 12.8821 8.67436C12.6797 8.47195 12.3388 8.37074 11.8594 8.37074C11.554 8.37074 11.2983 8.40625 11.0923 8.47727C10.8899 8.5483 10.7319 8.64595 10.6183 8.77024C10.5082 8.89453 10.4389 9.03835 10.4105 9.2017C10.3786 9.32955 10.3803 9.44673 10.4158 9.55327C10.4549 9.65625 10.5277 9.75035 10.6342 9.83558C10.7443 9.92081 10.8881 9.99716 11.0657 10.0646C11.2468 10.1321 11.4616 10.1925 11.7102 10.2457L12.5625 10.4375C13.1449 10.5653 13.6332 10.734 14.0273 10.9435C14.4251 11.1495 14.7376 11.3945 14.9648 11.6786C15.1921 11.9627 15.3413 12.2805 15.4123 12.6321C15.4869 12.9837 15.4886 13.3672 15.4176 13.7827C15.2969 14.5 15.0181 15.1072 14.5813 15.6044C14.1445 16.1016 13.5746 16.4798 12.8714 16.739C12.1683 16.9982 11.3551 17.1278 10.4318 17.1278C9.48722 17.1278 8.68466 16.9876 8.02415 16.707C7.36719 16.4229 6.89134 15.9897 6.59659 15.4073C6.3054 14.8214 6.23438 14.0739 6.38352 13.1648H9.19602C9.15341 13.4986 9.18892 13.7791 9.30256 14.0064C9.41619 14.2337 9.59908 14.4059 9.85121 14.5231C10.1033 14.6403 10.4176 14.6989 10.794 14.6989C11.1136 14.6989 11.3871 14.6598 11.6143 14.5817C11.8416 14.5036 12.021 14.3952 12.1523 14.2567C12.2837 14.1183 12.3636 13.9602 12.392 13.7827C12.4205 13.6193 12.392 13.4737 12.3068 13.3459C12.2216 13.218 12.0671 13.1026 11.8434 12.9996C11.6197 12.8967 11.3125 12.8026 10.9219 12.7173L9.87784 12.483C8.95099 12.2699 8.25142 11.9183 7.77912 11.4283C7.30682 10.9382 7.13991 10.267 7.27841 9.41477C7.39205 8.71875 7.67791 8.11151 8.13601 7.59304C8.59766 7.07102 9.18359 6.66619 9.89382 6.37855C10.6076 6.08736 11.3977 5.94176 12.2642 5.94176C13.1449 5.94176 13.8817 6.08913 14.4748 6.38388C15.0714 6.67862 15.4993 7.09233 15.7585 7.625C16.0213 8.15767 16.0923 8.78267 15.9716 9.5H13.1378Z" fill="#5887E1"/>
</svg>
